<?xml version="1.0" encoding="utf-8"?>
<!-- Generator: Adobe Illustrator 21.1.0, SVG Export Plug-In . SVG Version: 6.00 Build 0)  -->
<!DOCTYPE svg PUBLIC "-//W3C//DTD SVG 1.1//EN" "http://www.w3.org/Graphics/SVG/1.1/DTD/svg11.dtd">
<svg version="1.1" id="Layer_1" xmlns="http://www.w3.org/2000/svg" xmlns:xlink="http://www.w3.org/1999/xlink" x="0px" y="0px"
	 viewBox="0 0 900 900" style="enable-background:new 0 0 900 900;" xml:space="preserve">
<style type="text/css">
	.st0{fill:#FF8200;}
</style>
<g id="_x37_cBYjJ.tif">
	<g>
		<path class="st0" d="M460.9,889c-4.7-14.3-5-29.2-4.8-44c0.2-17-3.2-32.7-13.6-46.6c-1.3-1.7-2.6-3.5-5-6.6
			c-5.7,7.3-11.5,13.8-16.3,21c-7.1,10.4-8.5,22.8-11.1,34.8c-2.1,10.1-5.7,20-8.8,29.9c-1.2,3.7-3.7,5.1-7.9,5
			c-13.3-0.3-26.7-0.1-41.3-0.1c2.5-10.6,5-20.3,7-30.1c2-10.4,4.4-20.8,5-31.3c0.6-9.9-5-17.2-14.8-21.8c-3,4.2-6.1,8.3-8.9,12.5
			c-10.3,15.2-19.5,31-24.9,48.7c-0.8,2.7-2,4.2-5,3.8c-0.9-0.1-1.8,0-2.7,0c-23.8,0.1-24.9-0.5-40.2-19.7
			c20.4-23.7,22.2-70.6,3.3-92.7c-1.2,4.4-2.2,8.6-3.6,12.6c-7.4,22.3-17.5,43.2-34.8,59.6c-13.5,12.8-15.5,12.9-29.9,1.4
			c-6.8-5.5-13.2-11.6-19.3-17.9c-2.4-2.5-3.9-6.2-5.1-9.5c-0.5-1.4,0.2-4.1,1.4-5.1c37-32.1,67.9-69.9,99.4-107.1
			c21.3-25.2,42.1-50.8,59.6-78.9c1.2-1.9,2.2-3.8,3.4-5.7c6.7-11.1,10-22.7,9.5-36c-1.2-32.5-2.9-64.8-12.6-96.1
			c-1.2-4-2.8-7.9-4.3-11.9c-8.8-23.1-25.1-37.5-49.2-43.6c-29.7-7.6-59.9-10-90.4-10.9c-13.9-0.4-27.8-0.6-41.7,0.1
			c-12.1,0.5-23.6,4.1-30.2,15.1c-8.7,14.4-8.3,29.6-1.3,44.7c2,4.3,4.7,5.9,10,4.1c22.1-7.4,45.1-10.1,68.2-10.1
			c34.1,0,68.1,0.9,102.2,1.3c5.8,0.1,11.7,0,16,0c1.8,4.6,2.8,9.1,5.1,12.8c3.5,5.6,5.7,11.2,3.4,17.6c-7.6,21.5-15.4,43-23.1,64.5
			c-0.5,1.5-1.7,2.8-3.2,5.1c-12.4-24.8-12.5-52.5-23.7-78.1c-1,3.2-1.7,5.3-2.3,7.4c-0.6,2.1-1,4.3-1.5,6.4
			c-4.7,21.2-9,42.6-14.4,63.7c-3.1,12.1-3.8,11.9-15.9,11.9c-4.9,0-9.8,0-15.6,0c6-15.9,10.2-31.6,10.8-48
			c0.6-16.5-0.7-32.5-10.2-47.3c-9.2,4.4-15.2,11.8-18.2,20.7c-4.2,12.6-7.3,25.6-10.2,38.6c-3.9,17.9-7.2,35.8-10.8,53.9
			c-11.7,0-22.6,0-34.2,0c1.3-2.2,2.4-4,3.5-5.8c15.7-26.2,21.9-54.1,15-84.3c-2.2-9.5-7.1-17.5-17.1-23.5
			c-2.1,12.5-4.3,24.1-6,35.8c-3.4,23-6,46.1-10.1,69c-2.6,14.5-3.9,14.6-18.6,14.6c-6.6,0-13.2,0-20.8,0c1.4-2.7,2.6-4.8,3.7-7
			c15.4-31.1,19.6-63.8,12.7-97.8c-2.1-10-6.7-18.9-14.9-26.5c-4.7,7.8-9.9,14.4-9.7,24.3c0.6,35.7,0.1,71.5,0.3,107.3
			c0,4.8-1.7,6.6-6.1,7c-9.3,0.7-18.4,0.1-26.4-5.3c-1.6-1.1-3.2-3.3-3.4-5.1c-1.7-17.1-3-34.3-4.7-51.4c-2.7-26.3,0-52.4,3.5-78.3
			c5.2-38.8,11.5-77.6,22-115.4c3.6-13,9.1-25.5,13.9-38.1c1.1-2.9,3.2-5.3,4.9-8c2.5-4,5.5-5.3,10.5-4
			c71.8,18.5,143.7,36.5,215.3,55.4c21.2,5.6,41.6,13.9,62.9,21.1c5.2-5.9,6.7-13.8,8.1-21.7c3-16.6-0.3-32.3-5.9-47.9
			c-4.4-12.4-8.1-25-12.1-37.6c-0.4-1.2-0.4-2.5-0.6-4.5c11.6,3.7,22.6,7.3,33.7,10.7c17.9,5.4,35.8,10.5,53.6,16
			c8,2.5,15.2,1.2,22-3.1c7.3-4.5,14.4-9.2,22.1-14.1c9.1,12.8,17.8,25.4,27.1,37.7c6.5,8.6,13.2,17.1,20.7,24.8
			c9.3,9.6,20.5,12.6,33.5,6.8c37.7-16.6,75.5-33,113.3-49.3c18.5-7.9,37.1-15.7,55.9-22.9c13.5-5.2,18.7-3.4,27.2,8.4
			c10.8,14.9,17.2,31.9,22.8,49.2c19.1,58.8,33.8,118.6,43,179.7c1.2,7.8,1.5,15.7,2.2,23.5c1.8,19.9-7.6,34.8-21.8,49
			c-2-7-4.2-13.1-5.3-19.4c-5-26.8-9.4-53.7-14.5-80.5c-2.3-12.2-5.7-24.2-8.8-36.2c-0.7-2.6-2-5-3-7.4c-0.5-0.1-1.1-0.2-1.6-0.3
			c-7.2,13.7-15,27.1-21.4,41.2c-4.7,10.4-1.1,21.7,0.1,32.5c2,16.5,4.2,33,6.1,49.6c0.3,2.4-0.3,4.9-0.6,8
			c-7.6-3.4-12.7-8.5-17-14.4c-9.9-13.3-13.9-28.9-16.5-44.9c-2.9-18.1-5.8-36.1-8.9-54.2c-0.6-3.7-2.1-7.3-4.6-11.4
			c-1.4,2.4-3,4.6-4,7.1c-1.1,2.7-1.5,5.6-2.3,8.5c-6.4-5.6-6.5-5.6-11.4,0.9c-7.9,10.4-10,22.2-8.9,34.8
			c1.2,12.9,3.2,25.8,4.2,38.8c0.8,10.2-1.1,20-6.3,29.3c-7.4-2.8-12.4-8.1-15.1-14.7c-4.2-10.6-7.3-21.8-10.9-32.7
			c-3.7-11.1-7.2-22.2-11.2-33.2c-1.1-3.1-3.6-5.8-5.8-9.1c-3.3,3.6-6.4,6.5-8.9,9.8c-0.9,1.2-1.1,3.4-1,5.1
			c1.7,18.4,3.6,36.8,5.5,56c-8.5,0-16.8,0.1-25.2-0.1c-1.1,0-2.7-1.8-3-3c-4-14.2-8.8-28.4-11.6-42.9c-4.3-23,7.4-43.4,31.2-52.6
			c16.4-6.4,34-10,51.1-14.5c18.2-4.7,36.6-8.7,54.9-13.5c7.2-1.9,7.4-2.6,5.1-9.5c-1.9-5.7-4.1-11.4-7-16.6
			c-4.3-7.6-11.3-10.4-20-9.7c-22.6,2-43.6,9.3-64.3,17.9c-16.9,7-33.5,14.8-50.1,22.4c-4.5,2-8.8,4.4-13.2,6.6
			c1.8,8.2,4.4,16.1,5.1,24.1c0.6,7.9-0.7,15.9-1.3,25.2c-4.6-6.4-8-11.3-11.5-16.1c-0.4,0.2-0.8,0.4-1.2,0.6
			c-0.6,8.7-1,17.4-1.8,26c-3.1,32.9-9.7,65.2-17.8,97.1c-2.9,11.5-1,20,7.1,28.2c31.9,32.1,63.3,64.7,95.4,96.6
			c26.6,26.5,54,52.2,81.4,78.6c-5.1,5.6-9.5,11.2-14.6,16.1c-5.9,5.7-13.6,6.5-20,1.3c-8-6.4-15-13.9-22.5-20.8
			c-5.1-4.7-10.2-9.4-15.6-13.8c-1.9-1.6-4.5-2.8-6.9-3.2c-3-0.5-6.6-0.9-9.1,0.4c-1.3,0.7-0.7,4.9-1.2,7.5
			c-2.6,14.3,3,25.4,13.1,35.2c3.5,3.4,6.1,7.8,8.3,12.2c3.7,7.1,3.2,13.2-3,17.8c-8,5.9-17.1,10.5-25.9,15.3c-1,0.5-3.7-0.9-4.9-2
			c-17.2-17-31.4-36.2-42.5-57.7c-0.8-1.5-1.5-2.9-2.3-4.4c-13.8,7.3-23.5,27.5-19.9,42.1c3,12.2,6.5,24.4,9.7,36.6
			c0.2,0.9,0.2,1.8,0.4,3.8c-6.2,1.2-12.3,2.8-18.6,3.6c-12.1,1.6-24.1,0.8-35.9-2.5c-3.1-0.9-4.4-2.4-4.7-5.7
			c-0.9-10.4-1.7-20.8-3.3-31.1c-2.1-13.6-10.3-23-23.8-30.3c-5.8,28.9-11.4,56.8-17,84.7C487.3,889,474.1,889,460.9,889z
			 M457,714.9c-17.8-18.8-25.4-42.8-36.1-66.1c-12.6,20.2-24.6,39.4-36.8,59.1c-9-8.8-15.1-19.3-20.4-30.4
			c-5.2-11-10.2-22.2-16-34.6c-5.6,28.1-8.4,54.9-7.8,82.4c2.2,0.3,4.2,0.6,6.1,0.7c17.7,1,35.5,2.6,53.2,2.9
			c38.6,0.5,77.3,0.8,116,0.4c21.6-0.2,43.2-2.2,64.8-3.1c4.8-0.2,6.3-1.9,6-6.6c-0.4-6.4-0.2-12.8-0.1-19.2
			c0.6-23.5-6.2-44.8-18.7-64.4c-0.7-1.1-1.6-2.1-2.1-2.7c-2.7,11.8-4.8,23.7-8.3,35.1c-3.5,11.5-8.5,22.6-12.6,33.9
			c-1.3,3.6-3.4,4.5-7,4.3c-10-0.5-17.2-6-22.2-13.5c-8.4-12.4-15.5-25.6-23.1-38.5c-0.7-1.2-1.4-2.5-2.7-4.7
			C483.7,675,471.5,695.2,457,714.9z M548.9,486.5c-12,5-23.8,7.5-36.4,5.9c-1.3-0.2-3.7,1.6-4.2,3c-1.9,4.9-3.5,10-4.5,15.2
			c-2.1,10.4-3.5,20.9-5.6,31.3c-1.8,8.4-7,14.6-15,17.7c-15.1,5.7-30.5,5.9-45.7,0.4c-10.7-3.9-15.7-14-12.7-24.9
			c2.7-9.8,9.7-15.7,19.2-18.8c4.6-1.5,7.2,0.3,8.3,5c1.9,8,0.9,15.5-3.3,23.9c5.6-1.3,10.2-2.1,14.7-3.4
			c6.8-1.9,10.9-6.3,11.6-13.6c0.4-3.8,1-7.6,1.9-11.4c1.1-4.5-0.3-7.4-4.3-10c-23.5-14.6-49.3-17.9-76.1-14.8
			c-10.5,1.2-17.8,8.2-19.6,18.9c-1.1,6.9-1.2,14.2-0.4,21.3c1.2,10.9,3.8,21.6,5.1,32.5c0.5,3.9,1.9,5.3,5.4,6
			c17.3,3.2,34.5,6.9,51.8,9.8c27.5,4.7,53.9,2,78.6-12.4c14.1-8.2,27.7-16.8,35.9-31.4c1.8-3.2,2.9-7.7,2.4-11.3
			C554,512.6,551.4,499.7,548.9,486.5z M399.8,439.2c4.8-8.6,9.4-16,13.4-23.8c6-11.7,5.4-23.1-2-34.3c-3.6-5.4-6.4-11.4-9.4-17
			c-5.1,5.7-10.6,11.7-15.8,18.1c-1.7,2-3.3,4.9-3.3,7.4c-0.2,26-0.2,52-0.1,78c0,1.7,0.2,3.4,0.3,5c8.9-1,17-2.3,25.2-2.7
			c30.7-1.6,61.4-2.8,92.1-4.5c20.9-1.2,41.4-4.8,61-12.6c1.8-0.7,3.6-1.8,5.3-2.7c-0.1-0.3-0.3-0.5-0.4-0.8
			C511,446,455.8,442.6,399.8,439.2z M351.1,406.8c-1.7-2.6-2.5-4.9-4.2-6.4c-6.9-6-13.5-12.5-21.1-17.3
			c-15.8-9.9-33.4-16-51.5-19.8c-27.9-5.9-56.1-10.5-84.2-15.6c-9.7-1.7-19.4-3.3-29.1-4.9c-0.3,0.4-0.6,0.8-0.9,1.2
			c2.1,2.6,3.8,5.7,6.4,7.7c4.7,3.7,9.7,7.4,15,10.1c36.3,18.8,75,30.8,114.4,41C313.8,407.5,331.9,407.5,351.1,406.8z M310.4,734.7
			c2.5,16.9,4.9,33.6,7.4,50.4c0.5,0,0.9-0.1,1.4-0.1c0-7,0-14,0-22.2c13.4,0,26.1,0,38.9,0c34.1-0.1,68.1-0.4,102.2-0.3
			c38.8,0.1,77.7,0.8,116.5,1c14.6,0.1,25.7-8.4,38-15.5c-13.1,0-25.4-0.2-37.6,0c-30.2,0.7-60.4,1.7-90.6,2.6
			c-36.3,1.1-72.5-0.6-108.5-5.4C355.8,742.2,333.6,738.3,310.4,734.7z M727.9,318c-44.8,19.5-89.8,39-134.7,58.5
			c0.2,0.9,0.4,1.8,0.5,2.7c5.1,0,10.5,0.9,15.4-0.2c16.9-3.6,33.9-7.5,50.6-12.2c20.1-5.7,39.8-12.6,60.8-13.7c1-0.1,2.2-0.4,3-1
			C730.8,346.8,733.7,326.7,727.9,318z M127.4,401.2c1.7-6.5,3-13,5.1-19.2c4-12,2.6-22.7-6.4-32c-2.1-2.2-3.8-4.9-5.7-7.5
			c-8.8,10.6-14.4,24.1-28.3,30.4c1.5,14.5,8.4,26.9,15.9,40.3C111.4,402.2,119.6,402,127.4,401.2z M468.9,425
			c2.9,0,5.9-0.3,8.8,0.1c4.1,0.5,6.1-1.3,7-5c1.2-5.4,3-10.6,3.4-16.1c1-11-0.1-21.8-9.6-29.5c-1.3-1.1-3.9-2.1-5.2-1.5
			c-8.7,4-16.8,9.1-22.2,17.4c-7.3,11.4-2.7,21.9,3.2,31.9C457.9,428.1,464.1,423.7,468.9,425z M379.7,611.2
			c50.5,1.2,100.5,2.5,150.7,3.7c0-3.9,0-7.1,0-10.5c-50.4-1.3-100.5-2.5-150.7-3.8C379.7,604.4,379.7,607.4,379.7,611.2z
			 M521.5,371.9c-3,18.8-4.2,37,7.3,55c7.4-5,14.9-8.9,20.9-14.6c3.5-3.3,6.6-9.2,6.3-13.8c-0.4-8-3.4-15.9-5.7-23.7
			c-0.4-1.3-2.6-2.8-4-2.8C538.2,371.8,530,371.9,521.5,371.9z M471.4,306.4c-12.7-1.7-24.1,3.7-27.7,12.9
			c-5.4,13.6,1.6,36.8,14,45.7c3.5-2.5,6.9-5.5,10.8-7.4c8-3.8,10.1-9.1,8.1-17.8C474,328.8,473,317.5,471.4,306.4z M761.1,330.3
			c-1,8.3-3.4,16.3-2.6,24.1c1.2,11.9,16.6,21.8,31.2,21.6c0.3-2.3,0.7-4.6,1-7c1.5-11.6,3.6-23.2,0.3-34.8
			c-0.4-1.5-2.2-3.7-3.5-3.8C778.9,330.1,770.4,330.3,761.1,330.3z M534.7,683.7c1.9-15.4,3.7-30.4,5.6-45.4
			c-9.7-2.1-10.2-1.8-11.3,7.3c-0.5,4.2-1.2,8.3-1.7,12.5c-1,8.4-1.9,16.8-2.9,25.5C528.2,683.7,531,683.7,534.7,683.7z
			 M461.9,683.6c2.2-13.5,4.3-26.7,6.5-40.2c-3.9,0-7.1,0-10.5,0c-2.2,13.6-4.3,26.7-6.4,40.2C455.5,683.6,458.6,683.6,461.9,683.6z
			 M395.4,641.1c-0.3-0.5-0.7-1.1-1-1.6c-2.7,0.9-7,1.1-7.8,2.8c-4.7,11-8.5,22.4-12.8,33.9c3,1,5.6,1.9,8.5,2.9
			C386.8,666.3,391.1,653.7,395.4,641.1z M520.4,339.8c-3.2,2.2-5.7,3.9-8.5,5.8c4.9,7.5,9.4,14.5,14.2,21.8c3-2.1,5.7-3.8,8.5-5.8
			C529.8,354.2,525.3,347.2,520.4,339.8z"/>
		<path class="st0" d="M528,166.9c3.6-8.7,6.9-16.8,10.4-25.3c-7.8-5.3-16.8-9.6-17.9-20.9c8.6-2.4,16.8-4.8,25.1-7
			c1.4-0.4,3.4,0,4.7,0.8c24.1,13.9,48.5,27.3,72.1,42c8.5,5.3,15.8,13,22.5,20.7c10,11.6,10,24.9,3.6,38.6
			c-1.8,3.9-3.8,4.8-8.1,2.9c-15.2-6.8-30.7-12.8-45.9-19.7c-17-7.7-35.1-8-53.2-9.4c-28.1-2.2-54.4,5.4-80.8,13.3
			c-12.2,3.6-24.5,7.3-37.8,11.3c3.2,4.1,5.6,8.1,8.9,11c1.6,1.4,5.1,1.5,7.4,0.9c21.3-5.3,42.5-11.1,63.8-16.5
			c17.8-4.5,35.6-8.6,54.2-6.1c12.7,1.7,24.6,5.3,35.2,14.4c-2.9,1.6-5.3,3.2-7.9,4.3c-38.6,15.2-78.1,27.1-118.9,34.6
			c-16.5,3-32.2-2.2-45.9-11.5c-31.1-21.3-52.4-49.7-60.2-87.2c-4.5-21.6,1.5-40.1,17.4-55.5c25.2-24.5,54.6-31.2,88.1-21.1
			c12.1,3.7,20.9,11.1,25.4,23.1c3.1,8.2,6.2,16.4,9.2,24.7C504.9,144.5,513.1,157.6,528,166.9z M400.1,188.8
			c9.3,0.6,16.8,0.3,24.1,1.6c10.2,1.9,19.6,0.9,28.7-4.1c7.2-4,14.6-7.7,21.6-11.9c1.7-1.1,3.3-3.8,3.4-5.9
			c0.4-9.5,0.2-19,0.2-28.6c0-23.6,0-23.6-20.5-35.6c-0.9-0.6-1.9-1.2-2.8-1.7c-9.6-4.9-19.6-8.5-30.5-7.3
			c-20.3,2.2-39.3,27.2-35.6,48.2C391.4,159.2,396.4,174.6,400.1,188.8z"/>
		<path class="st0" d="M297,195.4c7.2-11.2,13.5-21.1,19.8-31c1.4-2.2,3-4.4,3.5-6.8c0.5-2.1-0.5-4.5-0.9-6.7
			c-0.1-0.3-0.4-0.6-0.7-0.8c-8.5-9.3-8.8-9.3-19-2.1c-5.7-8.3-5.7-27.5,0.6-41c2.9,5.6,7.4,7.1,13.1,6.2
			c7.4-1.1,11.5-4.6,13.3-11.9c1.9-7.6,0.5-14.9-1.5-22.2c-1.6-6-3.1-12-4-18.2c-0.6-4.5,1.2-7.9,6.6-9c5.2-1,10.1-3,15.6-4.7
			c4.6,7.9,9.2,15.9,14.7,25.4c1.3-3.4,2.1-5.1,2.7-6.9c3.7-10.5,7.2-21.1,11.1-31.6c3.7-9.8,9.5-18.1,19.7-23
			c7.4,13.5,10.8,29,22,41.4c2-8.9,3.6-16.7,5.6-24.5c1.1-4.4,2.6-8.8,4.6-12.9c2.3-4.6,6.5-6.1,11.6-4.9c6.4,1.6,11,5.6,14.7,10.8
			c6.3,8.7,9.1,16.2,11.3,30.4c7.6-8,11.3-17.1,11.8-28.2c9.2-0.3,17.9,0.9,26.2,4.7c1.3,0.6,2.3,2.8,2.5,4.3
			c0.7,7.3,1.1,14.6,1.6,21.9c0.4,5.6,1.1,11.1,1.6,16.6c0.6,0.2,1.2,0.5,1.9,0.7c7.3-6,14.7-11.9,22.6-18.4
			c6.2,5.6,12.9,11.6,20.8,18.7c-12.2,7.6-23.3,14.9-34.8,21.5c-2,1.2-6.1,0.4-8.4-1c-19.9-11.8-39.9-23.2-62.1-30.2
			c-45.1-14.1-90.3,10.1-102.5,54.8c-4.8,17.7-2.9,35.3,1.1,52.8c4.8,21.6,10.1,43.1,15.2,64.6c0.2,0.9,0.2,1.8,0.4,2.6
			c-0.4,0.4-0.8,0.9-1.2,1.3C337.7,224.1,317.4,209.8,297,195.4z"/>
		<path class="st0" d="M465.4,143.2c0,3.1-0.4,6.3,0.1,9.3c1.1,6.5-2.1,10-7.3,13c-9.7,5.5-19.8,8.4-31,6.2
			c-7.5-1.5-13.2-5.2-16.4-12.3c-3.4-7.5-6.8-15-9.8-22.7c-0.6-1.5,0.2-4.2,1.3-5.4c3.1-3.3,6.8-6.1,10.3-9.1
			c13.2-11.6,27.4-11,42.4-3.9c7.5,3.5,12.3,8,10.5,17.1C465,138,465.4,140.6,465.4,143.2z M428,127c3.5,8.7,6.8,17.1,10.2,25.8
			c3.2-1.4,5.7-2.5,8.5-3.8c-2.6-5.7-5.5-10.9-7.3-16.4C437.5,126.9,434.2,125.1,428,127z"/>
	</g>
</g>
</svg>
